HIERARCHY
ROOT Hips
{
	OFFSET 0.00000 0.00000 0.00000
	CHANNELS 6 Xposition Yposition Zposition Zrotation Yrotation Xrotation 
	JOINT LHipJoint
	{
		OFFSET 0 0 0
		CHANNELS 3 Zrotation Yrotation Xrotation
		JOINT LeftHip
		{
			OFFSET 1.41496 -1.84582 0.78394
			CHANNELS 3 Zrotation Yrotation Xrotation
			JOINT LeftKnee
			{
				OFFSET 2.58040 -7.08960 0.00000
				CHANNELS 3 Zrotation Yrotation Xrotation
				JOINT LeftAnkle
				{
					OFFSET 2.64719 -7.27309 0.00000
					CHANNELS 3 Zrotation Yrotation Xrotation
					JOINT LeftToe
					{
						OFFSET 0.20718 -0.56921 2.20259
						CHANNELS 3 Zrotation Yrotation Xrotation
						End Site
						{
							OFFSET 0.00000 -0.00000 1.14243
						}
					}
				}
			}
		}
	}
	JOINT RHipJoint
	{
		OFFSET 0 0 0
		CHANNELS 3 Zrotation Yrotation Xrotation
		JOINT RightHip
		{
			OFFSET -1.40551 -1.84582 0.78394
			CHANNELS 3 Zrotation Yrotation Xrotation
			JOINT RightKnee
			{
				OFFSET -2.56572 -7.04926 0.00000
				CHANNELS 3 Zrotation Yrotation Xrotation
				JOINT RightAnkle
				{
					OFFSET -2.57974 -7.08778 0.00000
					CHANNELS 3 Zrotation Yrotation Xrotation
					JOINT RightToe
					{
						OFFSET -0.26704 -0.73369 2.20815
						CHANNELS 3 Zrotation Yrotation Xrotation
						End Site
						{
							OFFSET -0.00000 -0.00000 1.16246
						}
					}
				}
			}
		}
	}
	JOINT lowerback
	{
		OFFSET 0 0 0
		CHANNELS 3 Zrotation Yrotation Xrotation
		JOINT Chest
		{
			OFFSET -0.04690 2.05196 -0.07017
			CHANNELS 3 Zrotation Yrotation Xrotation
			JOINT Chest2
			{
				OFFSET 0.04085 2.05260 0.00800
				CHANNELS 3 Zrotation Yrotation Xrotation
				JOINT lowerneck
				{
					OFFSET 0 0 0
					CHANNELS 3 Zrotation Yrotation Xrotation
					JOINT Neck
					{
						OFFSET -0.03582 1.80995 0.19301
						CHANNELS 3 Zrotation Yrotation Xrotation
						JOINT Head
						{
							OFFSET 0.00952 1.80195 -0.36389
							CHANNELS 3 Zrotation Yrotation Xrotation
							End Site
							{
								OFFSET 0.00392 1.85062 -0.14494
							}
						}
					}
				}
				JOINT LeftCollar
				{
					OFFSET 0 0 0
					CHANNELS 3 Zrotation Yrotation Xrotation
					JOINT LeftShoulder
					{
						OFFSET 3.55224 1.39726 -0.13667
CHANNELS 3 Zrotation Xrotation Yrotation
						JOINT LeftElbow
						{
OFFSET 0 -5.145070 -0.000000
CHANNELS 3 Zrotation Xrotation Yrotation
							JOINT LeftWrist
							{
OFFSET 0 -3.506460 0.000000
CHANNELS 3 Zrotation Xrotation Yrotation
								JOINT lhand
								{
									OFFSET 0 0 0
CHANNELS 3 Zrotation Xrotation Yrotation
									JOINT LFingers
									{
OFFSET 0 -0.629970 0.000000
CHANNELS 3 Zrotation Xrotation Yrotation
										End Site
										{
OFFSET 0 -0.507900 0.000000
										}
									}
								}
								JOINT LThumb
								{
OFFSET 0 0.000000 0.000000
CHANNELS 3 Zrotation Xrotation Yrotation
									End Site
									{
OFFSET 0 -0.515650 0.515650
									}
								}
							}
						}
					}
				}
				JOINT RightCollar
				{
					OFFSET 0 0 0
					CHANNELS 3 Zrotation Yrotation Xrotation
					JOINT RightShoulder
					{
						OFFSET -3.06467 1.61290 -0.28813
CHANNELS 3 Zrotation Xrotation Yrotation
						JOINT RightElbow
						{
OFFSET 0 -5.232000 -0.000000
CHANNELS 3 Zrotation Xrotation Yrotation
							JOINT RightWrist
							{
OFFSET 0 -3.656410 0.000000
CHANNELS 3 Zrotation Xrotation Yrotation
								JOINT rhand
								{
									OFFSET 0 0 0
CHANNELS 3 Zrotation Xrotation Yrotation
									JOINT RFingers
									{
OFFSET 0 -0.656810 0.000000
CHANNELS 3 Zrotation Xrotation Yrotation
										End Site
										{
OFFSET 0 -0.529530 0.000000
										}
									}
								}
								JOINT RThumb
								{
OFFSET 0 0.000000 0.000000
CHANNELS 3 Zrotation Xrotation Yrotation
									End Site
									{
OFFSET 0 -0.537620 0.537620
									}
								}
							}
						}
					}
				}
			}
		}
	}
}
MOTION
Frames: 6
Frame Time: 0.008333333333333333
-0.052500 16.107600 26.148400 167.867000 -1.783000 -165.824000 0.000000 0.000000 0.000000 -33.866900 -4.270900 15.533000 2.767000 10.308000 29.980000 0.967500 -5.546700 21.379700 0.025800 1.037800 2.852700 0.000000 0.000000 0.000000 -0.154300 7.054000 -65.044900 -3.456600 -11.399800 33.640500 0.137900 -10.540500 4.944400 -0.107800 2.116700 -5.828400 -6.663100 -3.571100 10.082700 -0.343300 -5.653400 -0.360000 4.171400 -2.637500 -5.425200 -2.513100 0.020600 -19.911400 0.367800 0.902500 4.106500 0.607600 0.543400 4.371800 0.000000 -0.000000 0.000000 6.784100 10.200900 -61.316900 154.011400 -37.197500 111.119200 22.089900 -25.849400 11.272500 0.000000 0.000000 0.000000 -7.125000 0.000000 0.000000 -3.530200 17.853700 -2.282200 0.000000 -0.000000 0.000000 -5.863300 52.327900 14.953800 -60.817000 -56.523700 -35.021700 -25.545200 -16.423500 -10.448300 0.000000 0.000000 0.000000 7.125000 0.000000 -0.000000 1.060400 18.429600 0.670900
-0.040573 16.089266 25.779692 167.567568 -2.224917 -166.035252 0.000000 0.000000 0.000000 -34.134993 -4.916710 15.545180 3.235180 11.045733 32.457232 0.884902 -4.822480 20.140291 0.040010 1.278678 3.515955 0.000000 0.000000 0.000000 -0.061108 6.423606 -64.929948 -3.399885 -11.315553 33.351979 0.169873 -11.593081 5.406046 -0.107863 2.117588 -5.830811 -6.827788 -3.684339 9.912112 -0.347931 -5.810348 -0.351753 4.260532 -2.717433 -5.287093 -2.537207 -0.022665 -19.771834 0.247202 0.853081 4.121091 0.568395 0.508191 4.356575 0.000000 0.000000 0.000000 6.794758 10.898983 -60.682700 153.478702 -37.716114 110.794138 21.636628 -26.586816 11.127669 0.000000 0.000000 0.000000 -7.125000 0.000000 0.000000 -3.844096 18.047506 -2.468901 0.000000 0.000000 0.000000 -5.590829 52.152301 14.334888 -61.093214 -56.593990 -35.252238 -25.741671 -16.493600 -10.293001 0.000000 0.000000 0.000000 7.125000 0.000000 0.000000 0.912904 18.582044 0.574790
-0.028674 16.069051 25.411952 167.341513 -2.673203 -166.282790 0.000000 0.000000 0.000000 -34.329038 -5.546177 15.387760 3.802837 11.864235 35.292857 0.774056 -4.232462 18.641562 0.036481 1.153960 3.173162 0.000000 0.000000 0.000000 0.129544 5.796706 -64.811879 -3.384725 -11.293099 33.274989 0.191875 -12.455687 5.867020 -0.105427 2.093453 -5.764064 -6.934715 -3.782176 9.781708 -0.328264 -5.940257 -0.319746 4.341842 -2.785594 -5.152185 -2.577199 -0.071360 -19.673096 0.114725 0.803984 4.151191 0.528275 0.472391 4.352342 0.000000 0.000000 0.000000 6.748192 11.555970 -59.967354 152.832283 -38.333506 110.395000 21.367820 -27.093268 10.894650 0.000000 0.000000 0.000000 -7.125000 0.000000 0.000000 -4.026263 18.319098 -2.563034 0.000000 0.000000 0.000000 -5.318009 51.897760 13.704849 -61.329379 -56.653772 -35.449419 -25.943222 -16.509917 -10.155818 0.000000 0.000000 0.000000 7.125000 0.000000 0.000000 0.762667 18.714222 0.477873
-0.016811 16.046276 25.045528 167.215269 -3.130155 -166.579684 0.000000 0.000000 0.000000 -34.422357 -6.153416 14.999639 4.505805 12.792602 38.615986 0.624784 -3.824993 16.790093 0.008822 0.531940 1.461894 0.000000 0.000000 0.000000 0.452766 5.174559 -64.689568 -3.426087 -11.354698 33.485734 0.200312 -13.059881 6.327080 -0.099591 2.035279 -5.603246 -6.963072 -3.859064 9.705961 -0.275546 -6.033386 -0.255418 4.412513 -2.837741 -5.021627 -2.638798 -0.127440 -19.629894 -0.033913 0.755327 4.202386 0.486913 0.435787 4.363064 0.000000 0.000000 0.000000 6.623788 12.157055 -59.141631 152.031174 -39.085259 109.895101 21.349931 -27.285551 10.541675 0.000000 0.000000 0.000000 -7.125000 0.000000 0.000000 -4.029245 18.696497 -2.531251 0.000000 0.000000 0.000000 -5.044714 51.535840 13.059674 -61.511068 -56.699257 -35.601229 -26.151682 -16.453076 -10.043277 0.000000 0.000000 0.000000 7.125000 0.000000 0.000000 0.608700 18.818833 0.379860
-0.005915 16.027211 24.681899 167.251369 -3.594471 -166.903995 0.000000 0.000000 0.000000 -34.304091 -6.618792 14.531799 5.238232 13.618832 41.785694 0.529967 -3.560838 15.486830 0.040832 -0.728328 -2.004786 0.000000 0.000000 0.000000 1.001603 4.564400 -64.442758 -3.491854 -11.451185 33.817645 0.166390 -13.146724 6.924649 -0.122030 2.242984 -6.178029 -6.856017 -3.923911 9.679348 -0.157783 -6.092917 -0.220496 4.478400 -2.870482 -4.959824 -2.808662 -0.201798 -19.421069 -0.124709 0.694950 4.182354 0.479310 0.395581 4.325942 0.000000 0.000000 0.000000 6.302582 12.884952 -58.246563 151.018051 -39.993819 109.246833 20.762601 -26.771585 10.423024 0.000000 0.000000 0.000000 -7.125000 0.000000 0.000000 -4.442387 18.868225 -2.774646 0.000000 0.000000 0.000000 -4.842538 51.100543 12.439764 -61.481120 -56.691847 -35.576181 -26.322406 -16.377957 -10.025294 0.000000 0.000000 0.000000 7.125000 0.000000 0.000000 0.486772 18.822544 0.303672
0.006526 16.012304 24.320855 167.428137 -4.028509 -167.307184 0.000000 0.000000 0.000000 -33.992388 -6.984744 13.843375 6.016907 14.426321 45.015739 0.470872 -3.523872 14.736441 0.063746 -1.605033 -4.415797 0.000000 0.000000 0.000000 1.830868 3.946186 -64.016650 -3.583426 -11.583378 34.274966 0.086612 -12.450470 7.634270 -0.209299 2.815920 -7.776562 -6.651783 -3.941503 9.751809 -0.017936 -6.084131 -0.164441 4.513918 -2.870014 -4.946687 -2.987401 -0.301062 -19.208342 -0.186584 0.600548 4.158795 0.479197 0.340523 4.287459 0.000000 0.000000 0.000000 5.902716 13.578618 -57.244601 149.785861 -41.060517 108.444252 20.270533 -26.039787 10.346545 0.000000 0.000000 0.000000 -7.125000 0.000000 0.000000 -4.789353 18.987516 -2.980909 0.000000 0.000000 0.000000 -4.590787 50.567720 11.825523 -61.377300 -56.665847 -35.489442 -26.425874 -16.284621 -10.025821 0.000000 0.000000 0.000000 7.125000 0.000000 0.000000 0.413518 18.812155 0.258119
